mtllib cliff_straight.mtl

o main
v 0.000000 0.218750 -0.187500
v 0.000000 0.187500 -0.125000
v 0.000000 0.250000 -0.250000
v 0.250000 0.187500 -0.125000
v 0.250000 0.250000 -0.250000
v 0.000000 0.093750 -0.062500
v 0.250000 0.000000 0.000000
v 0.000000 0.000000 0.000000
vn 0.0624 0.6442 0.7623
vn -0.2333 0.7347 0.6370
vn -0.0001 0.9947 0.1028
vn -0.2241 0.9731 0.0539
vn -0.2236 0.9732 0.0536
vn -0.0039 0.5491 0.8358
vn -0.0086 0.5948 0.8038
vn -0.0000 0.6908 0.7230
vt 0.500000 0.750000
vt 1.000000 0.750000
vt 0.500000 0.875000
vt 1.000000 1.000000
vt 0.500000 1.000000
vt 0.000000 0.500000
vt 0.500000 0.500000
vt 0.000000 0.750000
vt 0.000000 1.000000
s 1
usemtl cliff_straight
f 2/1/1 4/2/2 1/3/3
f 5/4/4 3/5/5 1/3/3
f 4/2/2 5/4/4 1/3/3
f 8/6/6 7/7/7 6/8/8
f 4/5/2 2/9/1 6/8/8
f 6/8/8 7/7/7 4/5/2
