mtllib house_0.mtl
o polygon0
v 0.846191 0.245117 0.931885
v 2.564453 0.245117 0.931885
v 2.564453 2.485596 0.931885
v 0.846191 2.485596 0.931885
v -2.578369 0.245117 0.931885
v -0.839844 0.245117 0.931885
v -0.839844 2.485596 0.931885
v -2.578369 2.485596 0.931885
v 3.193115 0.764404 -0.000000
v 3.193115 2.939209 -0.000000
v 2.687500 2.939209 0.250000
v 2.687500 0.764404 0.250000
v 3.193115 0.764404 -0.000000
v 3.193115 0.764404 -1.500000
v 3.193115 2.939209 -1.500000
v 3.193115 2.939209 -0.000000
v -3.687500 3.463623 0.556152
v -3.687500 2.482178 0.556152
v -3.312500 2.482178 0.556152
v -3.312500 3.463623 0.556152
v -0.375000 3.021729 1.541992
v 0.375000 3.022705 1.541992
v 0.375000 3.875000 1.541992
v -0.375000 3.875000 1.541992
vn -0.0000 -0.0000 1.0000
vt 0.613924 0.414161
vt 0.702532 0.414161
vt 0.702532 0.502769
vt 0.613924 0.502769
vt 0.636076 0.502769
vt 0.636076 0.414161
vt 0.702532 0.454658
vt 0.613924 0.453619
s 1
usemtl material_atlas_00001_1
f 1/1/1 2/2/1 3/3/1
f 3/3/1 4/4/1 1/1/1
f 5/1/1 6/2/1 7/3/1
f 7/3/1 8/4/1 5/1/1
f 9/1/1 10/2/1 11/3/1
f 11/3/1 12/4/1 9/1/1
f 13/1/1 14/2/1 15/3/1
f 15/3/1 16/4/1 13/1/1
f 17/5/1 18/6/1 19/2/1
f 19/2/1 20/3/1 17/5/1
f 21/1/1 22/2/1 23/7/1
f 23/7/1 24/8/1 21/1/1
o polygon1
v 0.687500 0.500000 1.068359
v 0.687500 2.437500 1.068359
v 0.687500 0.218750 -0.250732
v 0.687500 2.437500 -0.249268
v -0.687500 0.218750 -0.250732
v -0.687500 2.437500 -0.249268
v -0.687500 0.500000 1.068359
v -0.687500 2.437500 1.068359
v -2.750000 0.218750 0.484375
v -2.750000 2.416260 0.484375
v -3.500000 0.218750 0.484375
v -3.500000 2.416260 0.484375
v -4.250000 0.218750 0.484375
v -4.250000 2.416260 0.484375
v -0.500000 3.812500 1.664306
v -0.500000 3.000000 1.664306
v 0.000000 3.812500 1.664306
v 0.000000 3.000000 1.664306
v 0.500000 3.812500 1.664306
v 0.500000 3.000000 1.664306
v 0.500000 3.812500 1.664306
v 0.375000 4.062500 1.664306
v 0.000000 3.812500 1.664306
v 0.000000 4.187500 1.664306
v -0.500000 3.812500 1.664306
v -0.375000 4.062500 1.664306
v 2.500000 0.218750 1.081299
v 2.500000 0.218750 1.250000
v 2.500000 2.416260 1.250000
v 2.500000 2.416260 1.081299
v 2.750000 0.218750 1.250000
v 2.750000 0.218750 1.081299
v 2.750000 2.416260 1.081299
v 2.750000 2.416260 1.250000
v 2.500000 0.218750 1.250000
v 2.750000 0.218750 1.250000
v 2.750000 2.416260 1.250000
v 2.500000 2.416260 1.250000
v -2.750000 0.218750 1.081299
v -2.750000 0.218750 1.250000
v -2.750000 2.416260 1.250000
v -2.750000 2.416260 1.081299
v -2.500000 0.218750 1.250000
v -2.500000 0.218750 1.081299
v -2.500000 2.416260 1.081299
v -2.500000 2.416260 1.250000
v -2.750000 0.218750 1.250000
v -2.500000 0.218750 1.250000
v -2.500000 2.416260 1.250000
v -2.750000 2.416260 1.250000
v -0.562500 2.187500 1.500000
v -0.562500 0.218750 1.500000
v -0.562500 0.218750 0.818359
v -0.562500 2.187500 0.818359
v 0.562500 0.218750 1.500000
v 0.562500 2.187500 1.500000
v 0.562500 2.187500 0.818359
v 0.562500 0.218750 0.818359
v -0.812500 2.187500 1.500000
v -0.812500 0.218750 1.500000
v -0.562500 0.218750 1.500000
v -0.562500 2.187500 1.500000
v 0.812500 0.218750 1.500000
v 0.812500 2.187500 1.500000
v 0.562500 2.187500 1.500000
v 0.562500 0.218750 1.500000
v -0.812500 0.218750 0.818359
v -0.812500 0.218750 1.500000
v -0.812500 2.187500 1.500000
v -0.812500 2.187500 0.818359
v 0.812500 0.218750 1.500000
v 0.812500 0.218750 0.818359
v 0.812500 2.187500 0.818359
v 0.812500 2.187500 1.500000
v -4.250000 2.416260 0.484375
v -4.250000 2.416260 -1.934082
v -4.250000 0.218750 -1.934082
v -4.250000 0.218750 0.484375
v 0.687500 0.500000 1.068359
v 2.687500 0.500000 1.068359
v 2.687500 2.437500 1.068359
v 0.687500 2.437500 1.068359
v -2.687500 0.500000 1.068359
v -0.687500 0.500000 1.068359
v -0.687500 2.437500 1.068359
v -2.687500 2.437500 1.068359
v -0.687500 0.218750 1.068359
v 0.687500 0.218750 1.068359
v 0.687500 0.218750 -0.250732
v -0.687500 0.218750 -0.250732
v 0.500000 3.000000 1.664306
v 0.500000 3.000000 0.136474
v 0.500000 3.812500 0.136474
v 0.500000 3.812500 1.664306
v -0.500000 3.000000 0.136474
v -0.500000 3.000000 1.664306
v -0.500000 3.812500 1.664306
v -0.500000 3.812500 0.136474
v -0.687500 0.218750 -0.250732
v -0.687500 0.500000 1.068359
v -0.687500 0.218750 1.068359
v 0.687500 0.218750 1.068359
v 0.687500 0.500000 1.068359
v 0.687500 0.218750 -0.250732
vn -0.0000 1.0000 -0.0000
vn 0.0001 1.0000 -0.0001
vn -0.0001 1.0000 -0.0000
vn -0.0000 -0.0000 1.0000
vn -1.0000 -0.0000 -0.0000
vn 1.0000 -0.0000 -0.0000
vn -0.0000 1.0000 -0.0001
vn -0.0000 1.0000 0.0001
vt 0.251582 0.404283
vt 0.302932 0.447312
vt 0.302932 0.551176
vt 0.396435 0.447312
vt 0.396435 0.551176
vt 0.217094 0.525952
vt 0.217094 0.417266
vt 0.257714 0.525952
vt 0.257714 0.417266
vt 0.298334 0.525952
vt 0.298334 0.417266
vt 0.284538 0.546725
vt 0.257714 0.553402
vt 0.230889 0.546725
vt 0.205981 0.362737
vt 0.205981 0.520759
vt 0.302932 0.551918
vt 0.302932 0.446570
vt 0.208663 0.362737
vt 0.006329 0.362737
vt 0.006329 0.534855
vt 0.208663 0.534855
vt 0.214794 0.362737
vt 0.294502 0.362737
vt 0.294502 0.410218
vt 0.214794 0.410218
vt 0.030854 0.445828
s 1
usemtl material_atlas_00001_1
f 25/9/2 26/9/2 27/9/2
f 26/9/2 28/9/3 27/9/2
f 27/9/2 28/9/3 29/9/2
f 28/9/3 30/9/4 29/9/2
f 29/9/2 30/9/4 31/9/2
f 30/9/4 32/9/2 31/9/2
f 33/10/5 34/11/5 35/12/5
f 34/11/5 36/13/5 35/12/5
f 35/12/5 36/13/5 37/10/5
f 36/13/5 38/11/5 37/10/5
f 39/14/5 40/15/5 41/16/5
f 40/15/5 42/17/5 41/16/5
f 41/16/5 42/17/5 43/18/5
f 42/17/5 44/19/5 43/18/5
f 45/18/5 46/20/5 47/16/5
f 46/20/5 48/21/5 47/16/5
f 47/16/5 48/21/5 49/14/5
f 48/21/5 50/22/5 49/14/5
f 51/23/6 52/23/6 53/24/6
f 53/24/6 54/24/6 51/23/6
f 55/23/7 56/23/7 57/24/7
f 57/24/7 58/24/7 55/23/7
f 59/23/5 60/23/5 61/24/5
f 61/24/5 62/24/5 59/23/5
f 63/23/6 64/23/6 65/24/6
f 65/24/6 66/24/6 63/23/6
f 67/23/7 68/23/7 69/24/7
f 69/24/7 70/24/7 67/23/7
f 71/23/5 72/23/5 73/24/5
f 73/24/5 74/24/5 71/23/5
f 75/24/7 76/23/7 77/23/7
f 77/23/7 78/24/7 75/24/7
f 79/23/6 80/24/6 81/24/6
f 81/24/6 82/23/6 79/23/6
f 83/24/5 84/23/5 85/23/5
f 85/23/5 86/24/5 83/24/5
f 87/23/5 88/24/5 89/24/5
f 89/24/5 90/23/5 87/23/5
f 91/23/6 92/23/6 93/24/6
f 93/24/6 94/24/6 91/23/6
f 95/23/7 96/23/7 97/24/7
f 97/24/7 98/24/7 95/23/7
f 99/25/6 100/25/6 101/26/6
f 101/26/6 102/26/6 99/25/6
f 103/27/5 104/28/5 105/29/5
f 105/29/5 106/30/5 103/27/5
f 107/28/5 108/27/5 109/30/5
f 109/30/5 110/29/5 107/28/5
f 111/31/2 112/32/2 113/33/2
f 113/33/2 114/34/2 111/31/2
f 115/35/7 116/35/7 117/35/7
f 117/35/7 118/35/7 115/35/7
f 119/35/6 120/35/6 121/35/6
f 121/35/6 122/35/6 119/35/6
f 123/9/8 124/9/9 125/9/2
f 126/9/2 127/9/9 128/9/2
o polygon2
v 2.812500 2.416260 -2.459229
v 2.812500 2.416260 -2.775879
v 2.812500 3.083496 -2.184082
v 2.812500 3.154541 -2.482666
v 2.812500 3.622314 -1.930420
v 2.812500 3.821777 -2.180420
v 2.812500 4.110107 -1.559082
v 2.812500 4.362793 -1.740479
v 2.812500 4.468018 -1.078614
v 2.812500 4.759277 -1.190186
v 2.812500 4.572021 -0.695557
v 2.812500 4.902100 -0.695557
v 2.812500 4.468018 -0.312256
v 2.812500 4.759277 -0.200684
v 2.812500 4.110107 0.168213
v 2.812500 4.362793 0.349609
v 2.812500 3.622314 0.539550
v 2.812500 3.821777 0.789550
v 2.812500 3.083496 0.793213
v 2.812500 3.154541 1.091797
v 2.812500 2.416260 1.068359
v 2.812500 2.416260 1.385010
v -2.812500 2.416260 -2.775879
v -2.812500 2.416260 -2.459229
v -2.812500 3.154541 -2.482666
v -2.812500 3.083496 -2.184082
v -2.812500 3.821777 -2.180420
v -2.812500 3.622314 -1.930420
v -2.812500 4.362793 -1.740479
v -2.812500 4.110107 -1.559082
v -2.812500 4.759277 -1.190186
v -2.812500 4.468018 -1.078614
v -2.812500 4.902100 -0.695557
v -2.812500 4.572021 -0.695557
v -2.812500 4.759277 -0.200684
v -2.812500 4.468018 -0.312256
v -2.812500 4.362793 0.349609
v -2.812500 4.110107 0.168213
v -2.812500 3.821777 0.789550
v -2.812500 3.622314 0.539550
v -2.812500 3.154541 1.091797
v -2.812500 3.083496 0.793213
v -2.812500 2.416260 1.385010
v -2.812500 2.416260 1.068359
v -0.625000 3.750000 1.792236
v -0.500000 3.718750 1.792236
v -0.562500 4.000000 1.792236
v -0.437500 3.937500 1.792236
v -0.312500 4.250000 1.792236
v -0.250000 4.125000 1.792236
v 0.000000 4.343750 1.792236
v 0.000000 4.187500 1.792236
v 0.312500 4.250000 1.792236
v 0.250000 4.125000 1.792236
v 0.562500 4.000000 1.792236
v 0.437500 3.937500 1.792236
v 0.625000 3.750000 1.792236
v 0.500000 3.718750 1.792236
v -2.812500 2.416260 -2.459229
v 2.812500 2.416260 -2.459229
v -2.812500 3.083496 -2.184082
v 2.812500 3.083496 -2.184082
v -2.812500 3.622314 -1.930420
v 2.812500 3.622314 -1.930420
v -2.812500 4.110107 -1.559082
v 2.812500 4.110107 -1.559082
v -2.812500 4.468018 -1.078614
v 2.812500 4.468018 -1.078614
v -2.812500 4.572021 -0.695557
v 2.812500 4.572021 -0.695557
v 0.000000 4.343750 0.187500
v 0.000000 4.343750 1.792236
v 0.312500 4.250000 0.187500
v 0.312500 4.250000 1.792236
v 0.562500 4.000000 0.187500
v 0.562500 4.000000 1.792236
v 0.625000 3.750000 0.187500
v 0.625000 3.750000 1.792236
v 0.000000 4.343750 1.792236
v 0.000000 4.343750 0.187500
v -0.312500 4.250000 1.792236
v -0.312500 4.250000 0.187500
v -0.562500 4.000000 1.792236
v -0.562500 4.000000 0.187500
v -0.625000 3.750000 1.792236
v -0.625000 3.750000 0.187500
v 0.812500 2.375000 1.500000
v 0.812500 2.375000 0.818359
v 0.000000 2.375000 1.500000
v 0.000000 2.375000 0.818359
v -0.812500 2.375000 1.500000
v -0.812500 2.375000 0.818359
v -2.812500 2.416260 0.578125
v -2.687500 2.416260 0.578125
v -3.500000 4.812500 0.578125
v -3.500000 5.312500 0.578125
v -4.187500 2.416260 0.578125
v -4.312500 2.416260 0.578125
v 2.812500 4.362793 0.349609
v -2.812500 4.362793 0.349609
v 2.812500 3.821777 0.789550
v -2.812500 3.821777 0.789550
v 2.812500 3.154541 1.091797
v -2.812500 3.154541 1.091797
v -0.500000 3.718750 1.792236
v -0.500000 3.718750 1.664306
v -0.437500 3.937500 1.792236
v -0.437500 3.937500 1.664306
v -0.250000 4.125000 1.792236
v -0.250000 4.125000 1.664306
v 0.500000 3.718750 1.664306
v 0.500000 3.718750 1.792236
v 0.437500 3.937500 1.664306
v 0.437500 3.937500 1.792236
v 0.250000 4.125000 1.664306
v 0.250000 4.125000 1.792236
v 0.812500 2.375000 1.500000
v 0.000000 2.375000 1.500000
v 0.437500 2.375000 1.731933
v 0.000000 2.375000 1.853027
v 0.000000 2.375000 1.853027
v 0.000000 2.375000 1.500000
v -0.437500 2.375000 1.731933
v -0.812500 2.375000 1.500000
v 0.812500 2.187500 1.500000
v 0.812500 2.187500 0.818359
v 0.812500 2.375000 0.818359
v 0.812500 2.375000 1.500000
v 0.000000 2.187500 1.853027
v 0.437500 2.187500 1.731933
v 0.437500 2.375000 1.731933
v 0.000000 2.375000 1.853027
v -3.500000 4.812500 0.578125
v -3.500000 4.812500 -2.028077
v -2.812500 2.416260 -2.028076
v -2.812500 2.416260 0.578125
v -3.500000 5.312500 -2.028077
v -3.500000 5.312500 0.578125
v -2.687500 2.416260 0.578125
v -2.687500 2.416260 -2.028076
v -4.187500 2.416260 -2.028076
v -3.500000 4.812500 -2.028077
v -3.500000 4.812500 0.578125
v -4.187500 2.416260 0.578125
v 2.562500 3.496826 0.437500
v 3.500000 3.220703 0.437500
v 3.500000 3.220703 -1.937500
v 2.562500 3.496826 -1.937500
v 2.812500 2.416260 1.385010
v 2.812500 3.154541 1.091797
v -2.812500 3.154541 1.091797
v -2.812500 2.416260 1.385010
v 2.812500 4.759277 -0.200684
v -2.812500 4.759277 -0.200684
v -2.812500 4.362793 0.349609
v 2.812500 4.362793 0.349609
v 2.812500 4.759277 -0.200684
v 2.812500 4.902100 -0.695557
v -2.812500 4.902100 -0.695557
v -2.812500 4.759277 -0.200684
v 2.562500 3.339600 0.437500
v 3.500000 3.063477 0.437500
v 3.500000 3.220703 0.437500
v 2.562500 3.496826 0.437500
v -2.812500 3.821777 -2.180420
v -2.812500 4.362793 -1.740479
v 2.812500 4.362793 -1.740479
v 2.812500 3.821777 -2.180420
v 2.812500 4.759277 -1.190186
v 2.812500 4.362793 -1.740479
v -2.812500 4.362793 -1.740479
v -2.812500 4.759277 -1.190186
v 2.812500 4.759277 -1.190186
v -2.812500 4.759277 -1.190186
v -2.812500 4.902100 -0.695557
v 2.812500 4.902100 -0.695557
v -0.437500 2.187500 1.731933
v 0.000000 2.187500 1.853027
v 0.000000 2.375000 1.853027
v -0.437500 2.375000 1.731933
v 3.500000 3.063477 0.437500
v 3.500000 3.063476 -1.937500
v 3.500000 3.220703 -1.937500
v 3.500000 3.220703 0.437500
v -0.812500 2.375000 1.500000
v -0.812500 2.187500 1.500000
v -0.437500 2.187500 1.731933
v -0.437500 2.375000 1.731933
v 0.812500 2.187500 1.500000
v 0.812500 2.375000 1.500000
v 0.437500 2.375000 1.731933
v 0.437500 2.187500 1.731933
v -0.812500 2.187500 0.818359
v -0.812500 2.187500 1.500000
v -0.812500 2.375000 1.500000
v -0.812500 2.375000 0.818359
v 2.562500 3.496826 -1.937500
v 3.500000 3.220703 -1.937500
v 3.500000 3.063476 -1.937500
v 2.562500 3.339599 -1.937500
v -4.312500 2.416260 0.578125
v -3.500000 5.312500 0.578125
v -3.500000 5.312500 -2.028077
v -4.312500 2.416260 -2.028076
vn 1.0000 -0.0000 -0.0000
vn -1.0000 -0.0000 -0.0000
vn -0.0000 -0.0000 1.0000
vn -0.0000 -0.4045 0.9145
vn -0.0000 -0.4044 0.9146
vn -0.0000 -0.5187 0.8550
vn -0.0000 -0.7110 0.7032
vn -0.0000 -0.7111 0.7031
vn -0.0000 -0.8993 0.4374
vn -0.0000 -0.8991 0.4377
vn -0.0000 -0.9651 0.2617
vn -0.0000 -0.9651 0.2620
vn -0.0000 1.0000 -0.0000
vn 0.5131 0.8583 -0.0000
vn 0.8706 0.4920 -0.0000
vn 0.9702 0.2422 -0.0000
vn -0.5131 0.8583 -0.0000
vn -0.8706 0.4920 -0.0000
vn -0.9702 0.2422 -0.0000
vn -0.0000 0.7273 0.6863
vn -0.0000 0.5261 0.8504
vn -0.0000 0.3908 0.9205
vn 0.9613 -0.2754 -0.0000
vn 0.9613 -0.2756 -0.0000
vn 0.8615 -0.5077 -0.0000
vn 0.7071 -0.7071 -0.0000
vn -0.9613 -0.2754 -0.0000
vn -0.9613 -0.2756 -0.0000
vn -0.8615 -0.5077 -0.0000
vn -0.7071 -0.7071 -0.0000
vn 0.2677 -0.0000 0.9635
vn 0.2678 -0.0000 0.9635
vn -0.9614 -0.2753 -0.0000
vn -0.9613 -0.2755 -0.0000
vn 0.9703 0.2421 -0.0000
vn 0.9614 -0.2753 -0.0000
vn 0.9613 -0.2755 -0.0000
vn 0.2833 0.9590 -0.0000
vn 0.2832 0.9591 -0.0000
vn -0.0000 0.8990 0.4379
vn -0.0000 0.7274 0.6863
vn -0.0000 0.8991 0.4378
vn -0.0000 1.0000 0.0001
vn -0.0000 0.5260 -0.8505
vn -0.0000 0.7273 -0.6863
vn -0.0000 0.8990 -0.4379
vn -0.0000 0.7274 -0.6863
vn -0.0000 0.8991 -0.4378
vn -0.2677 -0.0000 0.9635
vn -0.2678 -0.0000 0.9635
vn -0.5260 -0.0000 0.8505
vn 0.5260 -0.0000 0.8505
vn -0.0000 -0.0000 -1.0000
vn -0.9703 0.2421 -0.0000
vt 0.105930 0.578354
vt 0.006329 0.578354
vt 0.009454 0.581044
vt 0.072729 0.959477
vt 0.337159 0.959477
vt 0.072729 0.871881
vt 0.337159 0.871881
vt 0.072729 0.806567
vt 0.337159 0.806567
vt 0.072729 0.765074
vt 0.337159 0.765074
vt 0.025468 0.957172
vt 0.293022 0.957172
vt 0.025468 0.870728
vt 0.293022 0.870728
vt 0.025468 0.806183
vt 0.293022 0.806183
vt 0.025468 0.765458
vt 0.293022 0.765458
vt 0.106711 0.702450
vt 0.106711 0.993671
vt 0.009063 0.702450
vt 0.009063 0.993671
vt 0.109054 0.702450
vt 0.109054 0.993671
vt 0.011797 0.702450
vt 0.011797 0.993671
vt 0.035233 0.582581
vt 0.962493 0.842682
vt 0.063746 0.842682
vt 0.962493 0.760848
vt 0.063746 0.760848
vt 0.962493 0.672483
vt 0.063746 0.672483
vt 0.080541 0.651352
vt 0.009063 0.632526
vt 0.109054 0.632526
vt 0.037576 0.651352
vt 0.006720 0.702450
vt 0.006720 0.851902
vt 0.006720 0.993671
vt 0.034842 0.583733
vt 0.105539 0.957556
vt 0.406293 0.958709
vt 0.100071 0.958709
vt 0.100071 0.573360
vt 0.406293 0.573360
vt 0.056325 0.943725
vt 0.056325 0.757006
vt 0.306302 0.757006
vt 0.306302 0.943725
vt 0.962493 0.576433
vt 0.962493 0.673635
vt 0.063746 0.673635
vt 0.063746 0.576433
vt 0.100071 0.934120
vt 0.999209 0.934120
vt 0.999209 0.841913
vt 0.100071 0.841913
vt 0.704704 0.861123
vt 0.704704 0.957556
vt 0.063746 0.957556
vt 0.063746 0.861123
vt 0.037576 0.590649
vt 0.962493 0.756622
vt 0.063746 0.756622
vt 0.050856 0.861123
vt 0.050856 0.957556
vt 0.011797 0.851902
s 1
usemtl material_atlas_00001_1
f 129/36/10 130/36/10 131/36/10
f 130/36/10 132/36/10 131/36/10
f 131/36/10 132/36/10 133/36/10
f 132/36/10 134/36/10 133/36/10
f 133/36/10 134/36/10 135/36/10
f 134/36/10 136/36/10 135/36/10
f 135/36/10 136/36/10 137/36/10
f 136/36/10 138/36/10 137/36/10
f 137/36/10 138/36/10 139/36/10
f 138/36/10 140/36/10 139/36/10
f 139/36/10 140/36/10 141/36/10
f 140/36/10 142/36/10 141/36/10
f 141/36/10 142/36/10 143/36/10
f 142/36/10 144/36/10 143/36/10
f 143/36/10 144/36/10 145/36/10
f 144/36/10 146/36/10 145/36/10
f 145/36/10 146/36/10 147/36/10
f 146/36/10 148/36/10 147/36/10
f 147/36/10 148/36/10 149/36/10
f 148/36/10 150/36/10 149/36/10
f 151/36/11 152/36/11 153/36/11
f 152/36/11 154/36/11 153/36/11
f 153/36/11 154/36/11 155/36/11
f 154/36/11 156/36/11 155/36/11
f 155/36/11 156/36/11 157/36/11
f 156/36/11 158/36/11 157/36/11
f 157/36/11 158/36/11 159/36/11
f 158/36/11 160/36/11 159/36/11
f 159/36/11 160/36/11 161/36/11
f 160/36/11 162/36/11 161/36/11
f 161/36/11 162/36/11 163/36/11
f 162/36/11 164/36/11 163/36/11
f 163/36/11 164/36/11 165/36/11
f 164/36/11 166/36/11 165/36/11
f 165/36/11 166/36/11 167/36/11
f 166/36/11 168/36/11 167/36/11
f 167/36/11 168/36/11 169/36/11
f 168/36/11 170/36/11 169/36/11
f 169/36/11 170/36/11 171/36/11
f 170/36/11 172/36/11 171/36/11
f 173/37/12 174/37/12 175/37/12
f 174/37/12 176/37/12 175/37/12
f 175/37/12 176/37/12 177/37/12
f 176/37/12 178/37/12 177/37/12
f 177/37/12 178/37/12 179/37/12
f 178/37/12 180/37/12 179/37/12
f 179/37/12 180/37/12 181/37/12
f 180/37/12 182/37/12 181/37/12
f 181/37/12 182/37/12 183/37/12
f 182/37/12 184/37/12 183/37/12
f 183/37/12 184/37/12 185/37/12
f 184/37/12 186/37/12 185/37/12
f 187/38/13 188/38/13 189/38/13
f 188/38/13 190/38/14 189/38/13
f 189/38/13 190/38/14 191/38/15
f 190/38/14 192/38/15 191/38/15
f 191/38/15 192/38/15 193/38/16
f 192/38/15 194/38/17 193/38/16
f 193/38/16 194/38/17 195/38/18
f 194/38/17 196/38/19 195/38/18
f 195/38/18 196/38/19 197/38/20
f 196/38/19 198/38/21 197/38/20
f 199/39/22 200/40/22 201/41/23
f 200/40/22 202/42/23 201/41/23
f 201/41/23 202/42/23 203/43/24
f 202/42/23 204/44/24 203/43/24
f 203/43/24 204/44/24 205/45/25
f 204/44/24 206/46/25 205/45/25
f 207/47/22 208/48/22 209/49/26
f 208/48/22 210/50/26 209/49/26
f 209/49/26 210/50/26 211/51/27
f 210/50/26 212/52/27 211/51/27
f 211/51/27 212/52/27 213/53/28
f 212/52/27 214/54/28 213/53/28
f 215/55/22 216/56/22 217/57/22
f 216/56/22 218/58/22 217/57/22
f 217/59/22 218/60/22 219/61/22
f 218/60/22 220/62/22 219/61/22
f 221/63/12 222/63/12 223/63/12
f 222/63/12 224/63/12 223/63/12
f 223/63/12 224/63/12 225/63/12
f 224/63/12 226/63/12 225/63/12
f 227/64/29 228/65/29 229/66/30
f 228/65/29 230/67/30 229/66/30
f 229/66/30 230/67/30 231/68/31
f 230/67/30 232/69/31 231/68/31
f 233/37/32 234/37/33 235/37/34
f 234/37/33 236/37/34 235/37/34
f 235/37/34 236/37/34 237/37/35
f 236/37/34 238/37/35 237/37/35
f 239/37/36 240/37/37 241/37/38
f 240/37/37 242/37/38 241/37/38
f 241/37/38 242/37/38 243/37/39
f 242/37/38 244/37/39 243/37/39
f 245/55/22 246/57/22 247/70/22
f 246/57/22 248/71/22 247/70/22
f 249/72/22 250/59/22 251/73/22
f 250/59/22 252/61/22 251/73/22
f 253/74/10 254/75/10 255/76/10
f 255/76/10 256/74/10 253/74/10
f 257/77/40 258/77/41 259/77/40
f 259/77/40 260/77/41 257/77/40
f 261/78/42 262/78/43 263/78/42
f 263/78/42 264/78/42 261/78/42
f 265/79/44 266/80/44 267/81/44
f 267/81/44 268/82/44 265/79/44
f 269/78/45 270/78/46 271/78/45
f 271/78/45 272/78/45 269/78/45
f 273/83/47 274/84/48 275/85/47
f 275/85/47 276/86/48 273/83/47
f 277/87/31 278/88/31 279/89/31
f 279/89/31 280/90/31 277/87/31
f 281/91/49 282/92/49 283/93/50
f 283/93/50 284/94/50 281/91/49
f 285/95/51 286/96/52 287/97/52
f 287/97/52 288/98/51 285/95/51
f 289/99/12 290/99/12 291/99/12
f 291/99/12 292/99/12 289/99/12
f 293/100/53 294/64/54 295/65/54
f 295/65/54 296/101/53 293/100/53
f 297/92/55 298/93/56 299/94/56
f 299/94/56 300/91/55 297/92/55
f 301/102/57 302/95/57 303/96/22
f 303/96/22 304/103/22 301/102/57
f 305/77/58 306/77/59 307/77/58
f 307/77/58 308/77/59 305/77/58
f 309/99/10 310/99/10 311/99/10
f 311/99/10 312/99/10 309/99/10
f 313/77/60 314/77/60 315/77/60
f 315/77/60 316/77/60 313/77/60
f 317/77/61 318/77/61 319/77/61
f 319/77/61 320/77/61 317/77/61
f 321/104/11 322/61/11 323/61/11
f 323/61/11 324/62/11 321/104/11
f 325/99/62 326/99/62 327/99/62
f 327/99/62 328/99/62 325/99/62
f 329/82/63 330/79/63 331/80/63
f 331/80/63 332/81/63 329/82/63
o polygon3
v -2.750000 2.416260 0.484375
v -3.500000 5.135254 0.484375
v -3.500000 2.416260 0.484375
v -4.250000 2.416260 0.484375
v -3.750000 2.416016 -0.038330
v -3.750000 2.416260 0.680420
v -3.750000 3.520752 0.679687
v -3.750000 3.520508 -0.039551
v -3.250000 2.416260 0.679687
v -3.250000 2.416260 -0.039063
v -3.250000 3.520752 -0.039063
v -3.250000 3.520752 0.679687
v -3.750000 2.416016 -0.038330
v -3.250000 2.416260 -0.039063
v -3.250000 2.416260 0.679687
v -3.750000 2.416260 0.680420
v -3.750000 3.520752 0.679687
v -3.250000 3.520752 0.679687
v -3.250000 3.520752 -0.039063
v -3.750000 3.520508 -0.039551
v -3.750000 2.416260 0.680420
v -3.250000 2.416260 0.679687
v -3.250000 3.520752 0.679687
v -3.750000 3.520752 0.679687
v 3.500000 0.218750 0.187500
v 3.500000 0.218750 -1.687500
v 3.500000 0.709961 -1.687500
v 3.500000 0.709961 0.187500
v 2.500000 0.709961 -2.125000
v 3.500000 0.709961 -1.687500
v 3.500000 0.218750 -1.687500
v 2.500000 0.218750 -2.125000
v 2.500000 0.709961 0.625000
v 3.500000 0.709961 0.187500
v 3.500000 0.709961 -1.687500
v 2.500000 0.709961 -2.125000
v 2.500000 0.218750 0.625000
v 3.500000 0.218750 0.187500
v 3.500000 0.709961 0.187500
v 2.500000 0.709961 0.625000
v 3.318115 0.621338 0.125000
v 3.318115 0.621338 -1.625000
v 3.318115 3.152344 -1.625000
v 3.318115 3.152344 0.125000
v 2.687500 3.152344 -1.875000
v 2.687500 0.621338 -1.875000
v 3.318115 0.621338 -1.625000
v 3.318115 3.152344 -1.625000
v 2.687500 0.621338 0.375000
v 3.318115 0.621338 0.125000
v 3.318115 3.152344 0.125000
v 2.687500 3.152344 0.375000
v -4.221680 2.416260 -1.705567
v -4.221680 2.416260 -1.330567
v -4.221680 5.737793 -1.330567
v -4.221680 5.737793 -1.705567
v -3.846680 2.416260 -1.330567
v -3.846680 2.416260 -1.705567
v -3.846680 5.737793 -1.705567
v -3.846680 5.737793 -1.330567
v -4.221680 5.737793 -1.330567
v -3.846680 5.737793 -1.330567
v -3.846680 5.737793 -1.705567
v -4.221680 5.737793 -1.705567
v -4.221680 2.416260 -1.330567
v -3.846680 2.416260 -1.330567
v -3.846680 5.737793 -1.330567
v -4.221680 5.737793 -1.330567
v -2.687500 0.500000 1.068359
v -2.687500 0.500000 -2.459229
v -2.687500 0.218750 -2.459229
v -2.687500 0.218750 1.068359
v 2.687500 2.437500 1.068359
v 2.687500 0.500000 1.068359
v 2.687500 0.500000 -2.459229
v 2.687500 2.437500 -2.459229
v 0.687500 0.218750 1.068359
v 2.687500 0.218750 1.068359
v 2.687500 0.500000 1.068359
v 0.687500 0.500000 1.068359
v -2.687500 2.437500 1.068359
v -2.687500 3.875000 0.500000
v -2.687500 3.875000 -1.875000
v -2.687500 2.437500 -2.459229
v 2.687500 3.875000 0.500000
v 2.687500 2.437500 1.068359
v 2.687500 2.437500 -2.459229
v 2.687500 3.875000 -1.875000
v -2.687500 0.218750 1.068359
v -0.687500 0.218750 1.068359
v -0.687500 0.500000 1.068359
v -2.687500 0.500000 1.068359
v -2.687500 0.500000 -2.459229
v -2.687500 0.500000 1.068359
v -2.687500 2.437500 1.068359
v -2.687500 2.437500 -2.459229
v 2.687500 0.218750 1.068359
v 2.687500 0.218750 -2.459229
v 2.687500 0.500000 -2.459229
v 2.687500 0.500000 1.068359
v 3.318115 3.152344 -1.625000
v 2.687500 3.414551 -1.875000
v 2.687500 3.152344 -1.875000
v 2.687500 3.152344 0.375000
v 3.318115 3.152344 0.125000
v 2.687500 3.414551 0.375000
v -2.687500 4.732666 -0.695557
v -2.687500 3.875000 -1.875000
v -2.687500 3.875000 0.500000
v 2.687500 3.875000 0.500000
v 2.687500 3.875000 -1.875000
v 2.687500 4.732666 -0.695557
vn -0.0000 -0.0000 1.0000
vn -1.0000 -0.0000 -0.0000
vn 1.0000 -0.0000 -0.0000
vn -0.0000 -1.0000 -0.0000
vn 0.0002 -1.0000 -0.0000
vn 0.0002 -1.0000 0.0002
vn -0.0002 1.0000 -0.0001
vn -0.0000 1.0000 -0.0000
vn 0.4005 -0.0000 -0.9163
vn 0.3691 -0.0000 0.9294
vn -0.3688 -0.0000 0.9295
vn -0.3690 -0.0000 0.9294
vn 0.3688 -0.0000 0.9295
vn 0.3690 -0.0000 0.9294
vt 0.547864 0.541535
vt 0.547864 0.500000
vt 0.521534 0.464399
vt 0.462198 0.534118
vt 0.411392 0.460690
vt 0.458861 0.460690
vt 0.458861 0.552660
vt 0.411392 0.552660
vt 0.461457 0.471074
vt 0.461457 0.505192
vt 0.461457 0.518542
vt 0.411392 0.455869
vt 0.411392 0.363528
vt 0.601266 0.363528
vt 0.601266 0.455869
vt 0.601266 0.396534
vt 0.411392 0.396534
vt 0.411392 0.395421
vt 0.601266 0.395421
vt 0.599782 0.462545
vt 0.455152 0.462545
vt 0.460344 0.507046
vt 0.505217 0.507046
vt 0.505217 0.551919
vt 0.460344 0.551919
vt 0.467390 0.504079
vt 0.467390 0.472187
vt 0.553797 0.488133
vt 0.553797 0.470332
vt 0.512263 0.470332
vt 0.512263 0.488133
vt 0.518196 0.535601
vt 0.535997 0.541535
vt 0.589399 0.488133
vt 0.583465 0.470332
vt 0.531547 0.494437
vt 0.522646 0.506675
vt 0.540447 0.514463
vt 0.543414 0.515576
vt 0.591995 0.390229
vt 0.595332 0.547468
s 1
usemtl material_atlas_00001_1
f 333/105/64 334/105/64 335/106/64
f 334/105/64 336/105/64 335/106/64
f 337/107/65 338/107/65 339/107/65
f 339/107/65 340/107/65 337/107/65
f 341/107/66 342/107/66 343/107/66
f 343/107/66 344/107/66 341/107/66
f 345/107/67 346/107/68 347/107/69
f 347/107/69 348/107/67 345/107/67
f 349/108/70 350/108/71 351/108/71
f 351/108/71 352/108/71 349/108/70
f 353/109/64 354/110/64 355/111/64
f 355/111/64 356/112/64 353/109/64
f 357/113/66 358/113/66 359/114/66
f 359/114/66 360/114/66 357/113/66
f 361/114/72 362/114/72 363/113/72
f 363/113/72 364/113/72 361/114/72
f 365/115/71 366/115/71 367/115/71
f 367/115/71 368/115/71 365/115/71
f 369/113/73 370/113/73 371/114/73
f 371/114/73 372/114/73 369/113/73
f 373/116/66 374/117/66 375/118/66
f 375/118/66 376/119/66 373/116/66
f 377/120/74 378/121/75 379/122/74
f 379/122/74 380/123/75 377/120/74
f 381/121/76 382/117/77 383/118/76
f 383/118/76 384/120/77 381/121/76
f 385/124/65 386/124/65 387/125/65
f 387/125/65 388/125/65 385/124/65
f 389/124/66 390/124/66 391/125/66
f 391/125/66 392/125/66 389/124/66
f 393/126/71 394/127/71 395/128/71
f 395/128/71 396/129/71 393/126/71
f 397/124/64 398/124/64 399/125/64
f 399/125/64 400/125/64 397/124/64
f 401/130/65 402/130/65 403/131/65
f 403/131/65 404/131/65 401/130/65
f 405/132/66 406/133/66 407/134/66
f 407/134/66 408/135/66 405/132/66
f 409/131/64 410/131/64 411/130/64
f 411/130/64 412/130/64 409/131/64
f 413/136/65 414/137/65 415/138/65
f 415/138/65 416/139/65 413/136/65
f 417/137/66 418/136/66 419/139/66
f 419/139/66 420/138/66 417/137/66
f 421/131/64 422/131/64 423/130/64
f 423/130/64 424/130/64 421/131/64
f 425/140/65 426/141/65 427/142/65
f 427/142/65 428/143/65 425/140/65
f 429/131/66 430/131/66 431/130/66
f 431/130/66 432/130/66 429/131/66
f 433/144/75 434/144/75 435/144/75
f 436/144/77 437/144/77 438/144/77
f 439/145/65 440/138/65 441/137/65
f 442/137/66 443/138/66 444/145/66
o polygon4
v 4.000000 0.156250 -2.000000
v 3.500000 0.156250 -2.000000
v 4.000000 0.156250 0.500000
v 3.500000 0.156250 0.500000
v 3.000000 0.156250 2.000000
v 2.687500 0.156250 1.500000
v -1.500000 0.156250 2.000000
v -1.812500 0.156250 1.500000
v -2.000000 0.156250 3.000000
v -2.187500 0.156250 2.312500
v -4.500000 0.156250 1.500000
v -4.000000 0.156250 1.187500
v -4.500000 0.156250 -2.500000
v -4.000000 0.156250 -2.000000
v 2.687500 0.156250 1.500000
v 3.500000 0.156250 0.500000
v -1.812500 0.156250 1.500000
v 3.500000 0.156250 -2.000000
v -4.000000 0.156250 1.187500
v -4.000000 0.156250 -2.000000
v -4.500000 0.156250 -2.500000
v -4.000000 0.156250 -2.000000
v 3.500000 0.156250 -2.000000
v 3.500000 0.156250 -2.500000
v -4.000000 0.156250 1.187500
v -2.187500 0.156250 2.312500
v -1.812500 0.156250 1.500000
v 3.500000 0.156250 -2.000000
v 4.000000 0.156250 -2.000000
v 3.500000 0.156250 -2.500000
vn -0.0000 1.0000 -0.0000
vt 0.812896 0.548655
vt 0.812896 0.520174
vt 0.808149 0.520174
vt 0.812896 0.546875
vt 0.812896 0.548062
vt 0.808149 0.524921
s 1
usemtl material_atlas_00001_1
f 445/146/78 446/147/78 447/146/78
f 446/147/78 448/147/78 447/146/78
f 447/146/78 448/147/78 449/146/78
f 448/147/78 450/147/78 449/146/78
f 449/146/78 450/147/78 451/146/78
f 450/147/78 452/147/78 451/146/78
f 451/146/78 452/147/78 453/146/78
f 452/147/78 454/147/78 453/146/78
f 453/146/78 454/147/78 455/146/78
f 454/147/78 456/147/78 455/146/78
f 455/146/78 456/147/78 457/146/78
f 456/147/78 458/147/78 457/146/78
f 459/148/78 460/148/78 461/148/78
f 460/148/78 462/148/78 461/148/78
f 461/148/78 462/148/78 463/148/78
f 462/148/78 464/148/78 463/148/78
f 465/149/78 466/147/78 467/147/78
f 467/147/78 468/150/78 465/149/78
f 469/151/78 470/151/78 471/151/78
f 472/147/78 473/146/78 474/146/78
o polygon5
v -4.132324 0.218750 1.229004
v -4.132324 0.218750 1.528320
v -4.095703 0.336426 1.472900
v -4.095703 0.336426 1.284180
v -3.871826 0.218750 1.528320
v -3.871826 0.218750 1.229004
v -3.908203 0.336426 1.284180
v -3.908203 0.336426 1.472900
v -4.095703 0.336426 1.284180
v -3.908203 0.336426 1.284180
v -3.871826 0.218750 1.229004
v -4.132324 0.218750 1.229004
v -4.095703 0.336426 1.472900
v -3.908203 0.336426 1.472900
v -3.908203 0.336426 1.284180
v -4.095703 0.336426 1.284180
v -4.132324 0.218750 1.528320
v -3.871826 0.218750 1.528320
v -3.908203 0.336426 1.472900
v -4.095703 0.336426 1.472900
v -4.043701 0.250000 1.331299
v -4.043701 0.250000 1.418701
v -4.043701 3.968750 1.418701
v -4.043701 3.968750 1.331298
v -3.956299 0.250000 1.418701
v -3.956299 0.250000 1.331299
v -3.956299 3.968750 1.331298
v -3.956299 3.968750 1.418701
v -4.043701 3.968750 1.418701
v -3.956299 3.968750 1.418701
v -3.956299 3.968750 1.331298
v -4.043701 3.968750 1.331298
v -4.043701 0.250000 1.418701
v -3.956299 0.250000 1.418701
v -3.956299 3.968750 1.418701
v -4.043701 3.968750 1.418701
vn -0.9550 0.2967 -0.0000
vn -0.9549 0.2968 -0.0000
vn 0.9549 0.2969 -0.0000
vn -0.0000 0.4260 -0.9047
vn -0.0000 0.4259 -0.9048
vn -0.0000 1.0000 -0.0000
vn -0.0000 0.3908 0.9205
vn -1.0000 -0.0000 -0.0000
vn 1.0000 -0.0000 -0.0000
vn -0.0000 -0.0000 1.0000
vt 0.677047 0.529668
vt 0.668973 0.529668
vt 0.670074 0.537381
vt 0.686589 0.526701
vt 0.776503 0.526701
vt 0.644018 0.515427
vt 0.648055 0.515427
vt 0.648055 0.553402
vt 0.644018 0.553402
s 1
usemtl material_atlas_00001_1
f 475/152/79 476/152/80 477/153/80
f 477/153/80 478/153/80 475/152/79
f 479/152/81 480/152/81 481/153/81
f 481/153/81 482/153/81 479/152/81
f 483/152/82 484/152/82 485/153/83
f 485/153/83 486/153/82 483/152/82
f 487/154/84 488/154/84 489/154/84
f 489/154/84 490/154/84 487/154/84
f 491/152/85 492/152/85 493/153/85
f 493/153/85 494/153/85 491/152/85
f 495/155/86 496/155/86 497/156/86
f 497/156/86 498/156/86 495/155/86
f 499/155/87 500/155/87 501/156/87
f 501/156/87 502/156/87 499/155/87
f 503/157/84 504/158/84 505/159/84
f 505/159/84 506/160/84 503/157/84
f 507/155/88 508/155/88 509/156/88
f 509/156/88 510/156/88 507/155/88
o polygon6
v -3.785034 4.093750 1.166847
v -3.569705 4.125000 0.986103
v -3.521764 4.375000 0.945789
v -3.617500 4.375000 1.026104
v -3.946587 4.031250 1.424668
v -4.067215 4.031250 1.280990
v -3.565555 4.125000 0.982514
v -4.067215 4.031250 1.280990
v -4.067215 4.218750 1.280990
v -3.565555 4.125000 0.982514
v -4.067215 4.218750 1.280990
v -3.946587 4.218750 1.424668
v -3.565555 4.125000 0.982514
v -3.946587 4.218750 1.424668
v -3.946587 4.031250 1.424668
v -3.565555 4.125000 0.982514
v -4.317247 4.125000 1.613366
v -4.067215 4.031250 1.280990
v -3.946587 4.031250 1.424668
v -4.317247 4.125000 1.613366
v -4.067215 4.218750 1.280990
v -4.067215 4.031250 1.280990
v -4.317247 4.125000 1.613366
v -3.946587 4.218750 1.424668
v -4.067215 4.218750 1.280990
v -4.317247 4.125000 1.613366
v -3.946587 4.031250 1.424668
v -3.946587 4.218750 1.424668
vn 0.3691 -0.0000 0.9294
vn 0.3691 0.0004 0.9294
vn -0.0000 -1.0000 -0.0000
vn 0.1505 -0.9871 -0.0547
vn -0.3731 -0.0000 -0.9278
vn -0.1875 -0.0000 -0.9823
vn -0.0000 1.0000 -0.0000
vn 0.1505 0.9871 -0.0547
vn 0.2677 -0.0000 0.9635
vn 0.5260 -0.0000 0.8505
vn -0.2109 -0.9745 0.0762
vn -0.5452 -0.0000 -0.8383
vn -0.2109 0.9745 0.0762
vn 0.1212 -0.0000 0.9926
vn 0.2678 -0.0000 0.9635
vt 0.671542 0.530558
vt 0.672643 0.526998
vt 0.681818 0.526108
vt 0.681818 0.527888
vt 0.666037 0.517207
vt 0.666037 0.523141
vt 0.677047 0.520174
vt 0.666037 0.527591
vt 0.666037 0.541238
vt 0.677047 0.534415
vt 0.666037 0.550732
vt 0.666037 0.537381
vt 0.677047 0.543908
vt 0.613924 0.519877
vt 0.707875 0.523141
vt 0.707875 0.516614
vt 0.613924 0.534415
vt 0.707875 0.545985
vt 0.707875 0.522844
vt 0.613924 0.542128
vt 0.707875 0.538271
s 1
usemtl material_atlas_00001_1
f 511/161/89 512/162/89 513/163/90
f 513/163/90 514/164/89 511/161/89
f 515/165/91 516/166/91 517/167/92
f 518/168/93 519/169/93 520/170/94
f 521/171/95 522/172/95 523/173/96
f 524/169/97 525/168/97 526/170/98
f 527/174/99 528/175/91 529/176/91
f 530/177/100 531/178/93 532/179/93
f 533/180/101 534/181/95 535/178/95
f 536/177/102 537/179/103 538/178/103
o polygon7
v -4.362229 4.062500 1.569463
v -4.281875 4.062500 1.665218
v -4.281875 4.187500 1.665218
v -4.362229 4.187500 1.569463
v -4.186121 4.062500 1.584864
v -4.266474 4.062500 1.489109
v -4.266474 4.187500 1.489109
v -4.186121 4.187500 1.584864
v -4.362229 4.062500 1.569463
v -4.266474 4.062500 1.489109
v -4.186121 4.062500 1.584864
v -4.281875 4.062500 1.665218
v -4.362229 4.187500 1.569463
v -4.266474 4.187500 1.489109
v -4.266474 4.062500 1.489109
v -4.362229 4.062500 1.569463
v -4.281875 4.187500 1.665218
v -4.186121 4.187500 1.584864
v -4.266474 4.187500 1.489109
v -4.362229 4.187500 1.569463
v -4.281875 4.062500 1.665218
v -4.186121 4.062500 1.584864
v -4.186121 4.187500 1.584864
v -4.281875 4.187500 1.665218
v -4.254086 3.781250 1.601102
v -4.358379 3.718750 1.525436
v -4.342141 4.468750 1.593402
v -4.237848 4.531250 1.669068
v -4.077141 4.156250 1.860578
v -4.013025 4.031250 1.888367
v -4.495148 4.093750 1.313838
v -4.559263 4.218750 1.286049
vn -1.0000 -0.0000 -0.0001
vn 1.0000 -0.0000 0.0001
vn -0.0000 -1.0000 -0.0000
vn 0.0001 -0.0000 -1.0000
vn -0.0000 1.0000 -0.0000
vn -0.0001 -0.0000 1.0000
vn 0.9605 0.0625 -0.2713
vn 0.9605 0.0624 -0.2713
vn 0.9703 0.2420 -0.0000
vt 0.676680 0.521954
vt 0.693195 0.531151
vt 0.675579 0.537975
vt 0.692828 0.542425
vt 0.737235 0.542425
vt 0.737235 0.545688
vt 0.692828 0.545688
s 1
usemtl material_atlas_00001_1
f 539/182/104 540/182/104 541/182/104
f 541/182/104 542/182/104 539/182/104
f 543/182/105 544/182/105 545/182/105
f 545/182/105 546/182/105 543/182/105
f 547/183/106 548/183/106 549/183/106
f 549/183/106 550/183/106 547/183/106
f 551/182/107 552/182/107 553/182/107
f 553/182/107 554/182/107 551/182/107
f 555/184/108 556/184/108 557/184/108
f 557/184/108 558/184/108 555/184/108
f 559/182/109 560/182/109 561/182/109
f 561/182/109 562/182/109 559/182/109
f 563/185/110 564/186/111 565/187/110
f 565/187/110 566/188/111 563/185/110
f 567/185/112 568/186/112 569/187/112
f 569/187/112 570/188/112 567/185/112
