mtllib cliff_outer_corner.mtl
o polygon12.001
v -0.080000 -0.000000 0.100000
v 0.040000 0.180000 0.100000
v -0.050000 0.000000 -0.050000
v 0.100000 0.180000 0.040000
v 0.100000 0.000000 -0.080000
v 0.100000 0.200000 0.100000
vn -0.8053 0.5864 0.0870
vn -0.6403 0.7602 0.1100
vn -0.5447 0.6376 -0.5447
vn 0.1041 0.7617 -0.6395
vn 0.1053 0.5564 -0.8242
vn 0.1109 0.9712 -0.2107
vt 0.968750 0.531250
vt 0.968750 0.968750
vt 0.750000 0.531250
vt 0.531250 0.968750
vt 0.531250 0.531250
vt 0.032678 0.753082
vt 0.463554 0.754978
vt 0.242591 0.968750
s 1
usemtl material_atlas_00001_1
f 1/1/1 2/2/2 3/3/3
f 2/2/2 4/4/4 3/3/3
f 3/3/3 4/4/4 5/5/5
f 4/6/4 2/7/2 6/8/6
