mtllib cliff_corner_outer.mtl

o main
v 0.000000 0.187500 -0.125000
v 0.125000 0.187500 -0.250000
v 0.000000 0.250000 -0.250000
v 0.250000 0.000000 -0.250000
v 0.125000 0.187500 -0.250000
v 0.187500 0.000000 -0.062500
v 0.000000 0.187500 -0.125000
v 0.000000 0.000000 0.000000
vn -0.0235 0.6469 0.7622
vn 0.6618 0.7497 -0.0000
vn -0.0002 1.0000 -0.0000
vn 0.8296 0.5583 0.0002
vn 0.5565 0.6170 0.5565
vn -0.0234 0.6469 0.7622
vn -0.0076 0.5547 0.8320
vt 0.500000 0.750000
vt 1.000000 0.750000
vt 0.750000 1.000000
vt 0.500000 0.500000
vt 0.500000 1.000000
vt 0.250000 0.500000
vt 0.000000 1.000000
vt 0.000000 0.500000
s 1
usemtl cliff_corner_outer
f 1/1/1 2/2/2 3/3/3
f 4/4/4 5/5/2 6/6/5
f 5/5/2 7/7/6 6/6/5
f 6/6/5 7/7/6 8/8/7
