mtllib gate.mtl
o polygon0
v -1.437500 2.500000 -1.750000
v -1.437500 2.500000 1.750000
v -1.937500 1.562500 -2.000000
v -1.937500 1.562500 2.000000
v -1.937500 0.125000 -2.491211
v -1.937500 0.125000 2.510254
v 0.000000 0.125000 -2.491211
v 0.000000 0.125000 2.510254
v 1.937500 0.125000 -2.491211
v 1.937500 0.125000 2.510254
v 1.937500 1.562500 -2.000000
v 1.937500 1.562500 2.000000
v 1.437500 2.500000 -1.750000
v 1.437500 2.500000 1.750000
v -1.437500 2.500000 -3.375000
v -1.437500 2.500000 -1.750000
v -1.937500 1.562500 -3.625000
v -1.937500 1.562500 -2.000000
v -1.937500 0.125000 -4.000000
v -1.937500 0.125000 -2.491211
v 1.437500 2.500000 3.375000
v 1.437500 2.500000 1.750000
v 1.937500 1.562500 3.625000
v 1.937500 1.562500 2.000000
v 1.937500 0.125000 4.000000
v 1.937500 0.125000 2.510254
v 1.437500 2.500000 3.375000
v -1.437500 2.500000 3.375000
v -1.437500 2.125000 3.375000
v 1.437500 2.125000 3.375000
v -1.437500 2.500000 -3.375000
v 1.437500 2.500000 -3.375000
v 1.437500 2.125000 -3.375000
v -1.437500 2.125000 -3.375000
v 1.937500 0.125000 -2.491211
v 1.937500 1.562500 -2.000000
v 1.937500 1.562500 -3.625000
v 1.937500 0.125000 -4.000000
v 1.937500 1.562500 -2.000000
v 1.437500 2.500000 -1.750000
v 1.437500 2.500000 -3.375000
v 1.937500 1.562500 -3.625000
v -1.937500 0.125000 2.510254
v -1.937500 1.562500 2.000000
v -1.937500 1.562500 3.625000
v -1.937500 0.125000 4.000000
v -1.937500 1.562500 2.000000
v -1.437500 2.500000 1.750000
v -1.437500 2.500000 3.375000
v -1.937500 1.562500 3.625000
v -1.937500 0.125000 4.000000
v 0.000000 0.125000 3.999512
v 0.000000 0.125000 2.510254
v -1.937500 0.125000 2.510254
v 0.000000 0.125000 3.999512
v 1.937500 0.125000 4.000000
v 1.937500 0.125000 2.510254
v 0.000000 0.125000 2.510254
v 1.937500 0.125000 -4.000000
v 0.000000 0.125000 -4.000000
v 0.000000 0.125000 -2.491211
v 1.937500 0.125000 -2.491211
v 0.000000 0.125000 -4.000000
v -1.937500 0.125000 -4.000000
v -1.937500 0.125000 -2.491211
v 0.000000 0.125000 -2.491211
v -1.700195 2.437500 -0.375000
v 1.700195 2.437500 -0.375000
v 2.137695 0.125000 -1.125000
v -2.137695 0.125000 -1.125000
v -2.137695 0.125000 1.125000
v 2.137695 0.125000 1.125000
v 1.700195 2.437500 0.375000
v -1.700195 2.437500 0.375000
v 1.437500 0.125000 -5.000000
v 0.000000 0.125000 -4.000000
v 1.937500 0.125000 -4.000000
v 0.000000 0.125000 -4.000000
v -1.437500 0.125000 -5.000000
v -1.937500 0.125000 -4.000000
v 0.000000 0.125000 3.999512
v -1.937500 0.125000 4.000000
v -1.437500 0.125000 5.000000
v 1.937500 0.125000 4.000000
v 0.000000 0.125000 3.999512
v 1.437500 0.125000 5.000000
v 0.000000 0.125000 3.999512
v -1.437500 0.125000 5.000000
v 1.437500 0.125000 5.000000
v 1.437500 0.125000 -5.000000
v -1.437500 0.125000 -5.000000
v 0.000000 0.125000 -4.000000
vn 0.8824 -0.4706 -0.0000
vn 0.9797 -0.2004 -0.0000
vn 0.9799 -0.1997 -0.0000
vn 0.6201 0.7845 -0.0000
vn 0.6164 0.7874 -0.0000
vn -0.0000 1.0000 -0.0000
vn -0.6201 0.7845 -0.0000
vn -0.6164 0.7874 -0.0000
vn -0.9797 -0.2004 -0.0000
vn -0.9799 -0.1997 -0.0000
vn -0.8824 -0.4706 -0.0000
vn 0.9787 -0.2051 -0.0000
vn 0.9580 -0.2869 -0.0000
vn 1.0000 -0.0000 -0.0000
vn -0.9787 -0.2051 -0.0000
vn -0.9576 -0.2880 -0.0000
vn -1.0000 -0.0000 -0.0000
vn -0.0000 -0.0000 1.0000
vn -0.0000 -0.0000 -1.0000
vn -0.0000 0.3085 -0.9512
vn -0.0000 0.3085 0.9512
vt 0.059245 0.403971
vt 0.156901 0.313151
vt 0.020182 0.313151
vt 0.156901 0.282878
vt 0.020182 0.282878
vt 0.156901 0.010417
vt 0.020182 0.010417
vt 0.011637 0.478394
vt 0.011637 0.349731
vt 0.106852 0.349731
vt 0.106852 0.478394
vt 0.010417 0.646159
vt 0.322917 0.646159
vt 0.322917 0.504883
vt 0.010417 0.504883
vt 0.137370 0.343424
vt 0.156901 0.484701
vt 0.117839 0.484701
vt 0.137370 0.484701
vt 0.117839 0.343424
vt 0.156901 0.343424
s 1
usemtl material_atlas_00001_1
f 1/1/1 2/1/1 3/1/2
f 2/1/1 4/1/3 3/1/2
f 3/1/2 4/1/3 5/1/4
f 4/1/3 6/1/5 5/1/4
f 5/1/4 6/1/5 7/1/6
f 6/1/5 8/1/6 7/1/6
f 7/1/6 8/1/6 9/1/7
f 8/1/6 10/1/8 9/1/7
f 9/1/7 10/1/8 11/1/9
f 10/1/8 12/1/10 11/1/9
f 11/1/9 12/1/10 13/1/11
f 12/1/10 14/1/11 13/1/11
f 15/2/1 16/3/1 17/4/12
f 16/3/1 18/5/13 17/4/12
f 17/4/12 18/5/13 19/6/14
f 18/5/13 20/7/14 19/6/14
f 21/2/11 22/3/11 23/4/15
f 22/3/11 24/5/16 23/4/15
f 23/4/15 24/5/16 25/6/17
f 24/5/16 26/7/17 25/6/17
f 27/8/18 28/9/18 29/10/18
f 29/10/18 30/11/18 27/8/18
f 31/8/19 32/9/19 33/10/19
f 33/10/19 34/11/19 31/8/19
f 35/7/17 36/5/17 37/4/17
f 37/4/17 38/6/17 35/7/17
f 39/3/11 40/5/11 41/4/11
f 41/4/11 42/2/11 39/3/11
f 43/7/14 44/5/14 45/4/14
f 45/4/14 46/6/14 43/7/14
f 47/3/1 48/5/1 49/4/1
f 49/4/1 50/2/1 47/3/1
f 51/12/6 52/13/6 53/14/6
f 53/14/6 54/15/6 51/12/6
f 55/12/6 56/13/6 57/14/6
f 57/14/6 58/15/6 55/12/6
f 59/13/6 60/12/6 61/15/6
f 61/15/6 62/14/6 59/13/6
f 63/13/6 64/12/6 65/15/6
f 65/15/6 66/14/6 63/13/6
f 67/1/20 68/1/20 69/1/20
f 69/1/20 70/1/20 67/1/20
f 71/1/21 72/1/21 73/1/21
f 73/1/21 74/1/21 71/1/21
f 75/16/6 76/17/6 77/18/6
f 78/18/6 79/16/6 80/17/6
f 81/18/6 82/17/6 83/16/6
f 84/18/6 85/17/6 86/16/6
f 87/19/6 88/20/6 89/21/6
f 90/20/6 91/21/6 92/19/6
o polygon1
v 1.750000 0.125000 -5.500000
v 1.625000 0.125000 -5.250000
v 2.750000 0.125000 -4.000000
v 2.250000 0.125000 -4.000000
v 2.750000 0.125000 4.000000
v 2.250000 0.125000 4.000000
v 1.750000 0.125000 5.500000
v 1.625000 0.125000 5.250000
v -1.750000 0.125000 5.500000
v -1.625000 0.125000 5.250000
v -2.750000 0.125000 4.000000
v -2.250000 0.125000 4.000000
v -2.750000 0.125000 -4.000000
v -2.250000 0.125000 -4.000000
v -1.750000 0.125000 -5.500000
v -1.625000 0.125000 -5.250000
v 1.750000 0.125000 -5.500000
v 1.625000 0.125000 -5.250000
vn -0.0000 1.0000 -0.0000
vt 0.382812 0.648438
vt 0.382812 0.601562
s 1
usemtl material_atlas_00001_1
f 93/22/22 94/23/22 95/22/22
f 94/23/22 96/23/22 95/22/22
f 95/22/22 96/23/22 97/22/22
f 96/23/22 98/23/22 97/22/22
f 97/22/22 98/23/22 99/22/22
f 98/23/22 100/23/22 99/22/22
f 99/22/22 100/23/22 101/22/22
f 100/23/22 102/23/22 101/22/22
f 101/22/22 102/23/22 103/22/22
f 102/23/22 104/23/22 103/22/22
f 103/22/22 104/23/22 105/22/22
f 104/23/22 106/23/22 105/22/22
f 105/22/22 106/23/22 107/22/22
f 106/23/22 108/23/22 107/22/22
f 107/22/22 108/23/22 109/22/22
f 108/23/22 110/23/22 109/22/22
o polygon2
v -2.500000 0.125000 -0.000000
v -2.500000 0.125000 4.000000
v -2.500000 1.562500 -0.000000
v -2.500000 1.562500 3.625000
v -2.008545 2.500000 -0.000000
v -2.008545 2.500000 3.375000
v -1.552002 2.875000 -0.000000
v -1.552002 2.875000 3.125000
v -1.552002 2.875000 -0.000000
v -1.552002 2.875000 -3.125000
v -2.008545 2.500000 -0.000000
v -2.008545 2.500000 -3.375000
v -2.500000 1.562500 -0.000000
v -2.500000 1.562500 -3.625000
v -2.500000 0.125000 -0.000000
v -2.500000 0.125000 -4.000000
v -1.937500 0.125000 -4.000000
v -2.500000 0.125000 -4.000000
v -1.937500 1.562500 -3.625000
v -2.500000 1.562500 -3.625000
v -1.437500 2.500000 -3.375000
v -2.008545 2.500000 -3.375000
v 1.437500 2.500000 -3.375000
v 2.008545 2.500000 -3.375000
v 1.937500 1.562500 -3.625000
v 2.500000 1.562500 -3.625000
v 1.937500 0.125000 -4.000000
v 2.500000 0.125000 -4.000000
v -1.552002 2.875000 3.125000
v -1.000000 2.875000 2.500000
v -1.552002 2.875000 -0.000000
v -1.000000 2.875000 -0.000000
v -1.552002 2.875000 -3.125000
v -1.000000 2.875000 -2.500000
v 1.937500 0.125000 4.000000
v 2.500000 0.125000 3.999512
v 1.937500 1.562500 3.625000
v 2.500000 1.562500 3.625000
v 1.437500 2.500000 3.375000
v 2.008545 2.500000 3.375000
v 1.552002 2.875000 -3.125000
v 1.000000 2.875000 -2.500000
v 1.552002 2.875000 -0.000000
v 1.000000 2.875000 -0.000000
v 1.552002 2.875000 3.125000
v 1.000000 2.875000 2.500000
v -1.437500 2.500000 3.375000
v -2.008545 2.500000 3.375000
v -1.937500 1.562500 3.625000
v -2.500000 1.562500 3.625000
v -1.937500 0.125000 4.000000
v -2.500000 0.125000 4.000000
v 2.500000 1.562500 3.625000
v 2.500000 0.125000 3.999512
v 2.500000 1.562500 -0.000000
v 2.500000 0.125000 -0.000000
v 2.500000 1.562500 -3.625000
v 2.500000 0.125000 -4.000000
v 2.008545 2.500000 3.375000
v 2.500000 1.562500 3.625000
v 2.008545 2.500000 -0.000000
v 2.500000 1.562500 -0.000000
v 2.008545 2.500000 -3.375000
v 2.500000 1.562500 -3.625000
v 1.552002 2.875000 3.125000
v 2.008545 2.500000 3.375000
v 1.552002 2.875000 -0.000000
v 2.008545 2.500000 -0.000000
v 1.552002 2.875000 -3.125000
v 2.008545 2.500000 -3.375000
v -1.937500 0.125000 -4.000000
v -1.437500 0.125000 -5.000000
v -1.625000 0.125000 -5.250000
v -2.250000 0.125000 -4.000000
v 1.437500 0.125000 -5.000000
v 1.937500 0.125000 -4.000000
v 2.250000 0.125000 -4.000000
v 1.625000 0.125000 -5.250000
v -1.625000 0.125000 5.250000
v 1.625000 0.125000 5.250000
v 1.437500 0.125000 5.000000
v -1.437500 0.125000 5.000000
v 1.937500 0.125000 4.000000
v 1.437500 0.125000 5.000000
v 1.625000 0.125000 5.250000
v 2.250000 0.125000 4.000000
v -1.437500 0.125000 5.000000
v -1.937500 0.125000 4.000000
v -2.250000 0.125000 4.000000
v -1.625000 0.125000 5.250000
v 1.000000 2.625000 2.500000
v 1.000000 2.625000 -0.000000
v -1.000000 2.625000 -0.000000
v -1.000000 2.625000 2.500000
v -1.552002 2.875000 3.125000
v -1.437500 2.500000 3.375000
v 1.437500 2.500000 3.375000
v 1.552002 2.875000 3.125000
v 1.000000 2.875000 -2.500000
v -1.000000 2.875000 -2.500000
v -1.000000 2.625000 -2.500000
v 1.000000 2.625000 -2.500000
v 1.000000 2.875000 -0.000000
v 1.000000 2.875000 -2.500000
v 1.000000 2.625000 -2.500000
v 1.000000 2.625000 -0.000000
v -1.000000 2.875000 -0.000000
v -1.000000 2.875000 2.500000
v -1.000000 2.625000 2.500000
v -1.000000 2.625000 -0.000000
v -1.000000 2.875000 -2.500000
v -1.000000 2.875000 -0.000000
v -1.000000 2.625000 -0.000000
v -1.000000 2.625000 -2.500000
v 1.552002 2.875000 -3.125000
v 1.437500 2.500000 -3.375000
v -1.437500 2.500000 -3.375000
v -1.552002 2.875000 -3.125000
v -1.552002 2.875000 -3.125000
v -1.000000 2.875000 -2.500000
v 1.000000 2.875000 -2.500000
v 1.552002 2.875000 -3.125000
v -1.000000 2.875000 2.500000
v 1.000000 2.875000 2.500000
v 1.000000 2.625000 2.500000
v -1.000000 2.625000 2.500000
v 1.000000 2.875000 2.500000
v 1.000000 2.875000 -0.000000
v 1.000000 2.625000 -0.000000
v 1.000000 2.625000 2.500000
v 1.552002 2.875000 3.125000
v 1.000000 2.875000 2.500000
v -1.000000 2.875000 2.500000
v -1.552002 2.875000 3.125000
v -1.000000 2.625000 -2.500000
v -1.000000 2.625000 -0.000000
v 1.000000 2.625000 -0.000000
v 1.000000 2.625000 -2.500000
v -1.437500 0.125000 -5.000000
v 1.437500 0.125000 -5.000000
v 1.625000 0.125000 -5.250000
v -1.625000 0.125000 -5.250000
v -2.008545 2.500000 3.375000
v -1.437500 2.500000 3.375000
v -1.552002 2.875000 3.125000
v 1.552002 2.875000 3.125000
v 1.437500 2.500000 3.375000
v 2.008545 2.500000 3.375000
v 2.008545 2.500000 -3.375000
v 1.437500 2.500000 -3.375000
v 1.552002 2.875000 -3.125000
v -1.552002 2.875000 -3.125000
v -1.437500 2.500000 -3.375000
v -2.008545 2.500000 -3.375000
vn -1.0000 -0.0000 -0.0000
vn -0.7066 0.1230 0.6969
vn -0.9749 0.2227 -0.0000
vn -0.6658 0.2949 0.6854
vn -0.8614 0.5079 -0.0000
vn -0.5641 0.5466 0.6189
vn -0.4589 0.8885 -0.0000
vn -0.3476 0.8534 0.3886
vn -0.3476 0.8533 -0.3886
vn -0.8614 0.5079 -0.0001
vn -0.5641 0.5466 -0.6188
vn -0.6658 0.2949 -0.6854
vn -0.7066 0.1229 -0.6969
vn -0.0000 0.2306 -0.9731
vn -0.0000 1.0000 -0.0000
vn -0.0000 0.2306 0.9731
vn 0.0001 0.2306 0.9731
vn 0.6658 0.2949 0.6854
vn 0.7066 0.1230 0.6969
vn 0.9749 0.2227 -0.0000
vn 1.0000 -0.0000 -0.0000
vn 0.6658 0.2948 -0.6854
vn 0.7066 0.1230 -0.6969
vn 0.5642 0.5466 0.6189
vn 0.9010 0.4339 -0.0000
vn 0.8614 0.5079 -0.0000
vn 0.9749 0.2228 -0.0000
vn 0.5641 0.5466 -0.6189
vn 0.3476 0.8533 0.3886
vn 0.5641 0.5466 0.6188
vn 0.4589 0.8885 -0.0000
vn 0.3476 0.8534 -0.3886
vn 0.5641 0.5466 -0.6188
vn 0.2891 0.9144 -0.2833
vn -0.2892 0.9144 -0.2833
vn -0.2891 0.9144 0.2833
vn 0.2892 0.9144 0.2833
vn -0.0000 0.6311 0.7757
vn -0.0000 -0.0000 1.0000
vn -0.0000 0.6311 -0.7757
vn -0.0000 -0.0000 -1.0000
vt 0.343424 0.677083
vt 0.656250 0.677083
vt 0.343424 0.833333
vt 0.656250 0.833333
vt 0.343424 0.940755
vt 0.656250 0.940755
vt 0.343424 0.989583
vt 0.656250 0.989583
vt 0.323242 0.677083
vt 0.262695 0.677083
vt 0.323242 0.833333
vt 0.262695 0.833333
vt 0.323242 0.940755
vt 0.262695 0.940755
vt 0.242513 0.823568
vt 0.181966 0.804036
vt 0.242513 0.725911
vt 0.181966 0.725911
vt 0.161784 0.823568
vt 0.020508 0.823568
vt 0.020508 0.686849
vt 0.161784 0.686849
vt 0.010417 0.843099
vt 0.202148 0.843099
vt 0.202148 0.989583
vt 0.010417 0.989583
vt 0.282878 0.989583
vt 0.282878 0.940755
vt 0.303060 0.940755
vt 0.303060 0.989583
vt 0.535156 0.989583
vt 0.464518 0.989583
vt 0.464518 0.950521
vt 0.535156 0.950521
vt 0.181966 0.823568
vt 0.181966 0.677083
vt 0.242513 0.677083
vt 0.323242 0.989583
s 1
usemtl material_atlas_00001_1
f 111/24/23 112/25/24 113/26/25
f 112/25/24 114/27/26 113/26/25
f 113/26/25 114/27/26 115/28/27
f 114/27/26 116/29/28 115/28/27
f 115/28/27 116/29/28 117/30/29
f 116/29/28 118/31/30 117/30/29
f 119/30/29 120/31/31 121/28/32
f 120/31/31 122/29/33 121/28/32
f 121/28/32 122/29/33 123/26/25
f 122/29/33 124/27/34 123/26/25
f 123/26/25 124/27/34 125/24/23
f 124/27/34 126/25/35 125/24/23
f 127/32/36 128/33/36 129/34/36
f 128/33/36 130/35/36 129/34/36
f 129/34/36 130/35/36 131/36/36
f 130/35/36 132/37/36 131/36/36
f 133/36/36 134/37/36 135/34/36
f 134/37/36 136/35/36 135/34/36
f 135/34/36 136/35/36 137/32/36
f 136/35/36 138/33/36 137/32/36
f 139/38/37 140/39/37 141/40/37
f 140/39/37 142/41/37 141/40/37
f 141/40/37 142/41/37 143/38/37
f 142/41/37 144/39/37 143/38/37
f 145/32/38 146/33/38 147/34/39
f 146/33/38 148/35/38 147/34/39
f 147/34/39 148/35/38 149/36/38
f 148/35/38 150/37/38 149/36/38
f 151/38/37 152/39/37 153/40/37
f 152/39/37 154/41/37 153/40/37
f 153/40/37 154/41/37 155/38/37
f 154/41/37 156/39/37 155/38/37
f 157/36/38 158/37/38 159/34/38
f 158/37/38 160/35/38 159/34/38
f 159/34/38 160/35/38 161/32/38
f 160/35/38 162/33/38 161/32/38
f 163/27/40 164/25/41 165/26/42
f 164/25/41 166/24/43 165/26/42
f 165/26/42 166/24/43 167/27/44
f 166/24/43 168/25/45 167/27/44
f 169/29/46 170/27/47 171/28/48
f 170/27/47 172/26/49 171/28/48
f 171/28/48 172/26/49 173/29/50
f 172/26/49 174/27/44 173/29/50
f 175/31/51 176/29/52 177/30/53
f 176/29/52 178/28/48 177/30/53
f 177/30/53 178/28/48 179/31/54
f 178/28/48 180/29/55 179/31/54
f 181/42/56 182/43/37 183/44/37
f 183/44/37 184/45/37 181/42/56
f 185/42/37 186/43/57 187/44/37
f 187/44/37 188/45/37 185/42/37
f 189/42/37 190/43/37 191/44/37
f 191/44/37 192/45/37 189/42/37
f 193/42/58 194/43/37 195/44/37
f 195/44/37 196/45/37 193/42/58
f 197/42/37 198/43/59 199/44/37
f 199/44/37 200/45/37 197/42/37
f 201/46/37 202/47/37 203/48/37
f 203/48/37 204/49/37 201/46/37
f 205/50/60 206/51/60 207/52/60
f 207/52/60 208/53/60 205/50/60
f 209/54/61 210/55/61 211/56/61
f 211/56/61 212/57/61 209/54/61
f 213/54/23 214/55/23 215/56/23
f 215/56/23 216/57/23 213/54/23
f 217/54/43 218/55/43 219/56/43
f 219/56/43 220/57/43 217/54/43
f 221/54/43 222/55/43 223/56/43
f 223/56/43 224/57/43 221/54/43
f 225/50/62 226/51/62 227/52/62
f 227/52/62 228/53/62 225/50/62
f 229/38/37 230/58/37 231/59/37
f 231/59/37 232/60/37 229/38/37
f 233/54/63 234/55/63 235/56/63
f 235/56/63 236/57/63 233/54/63
f 237/54/23 238/55/23 239/56/23
f 239/56/23 240/57/23 237/54/23
f 241/38/37 242/58/37 243/59/37
f 243/59/37 244/60/37 241/38/37
f 245/46/37 246/47/37 247/48/37
f 247/48/37 248/49/37 245/46/37
f 249/42/37 250/43/37 251/44/37
f 251/44/37 252/45/37 249/42/37
f 253/36/60 254/37/60 255/61/60
f 256/61/60 257/37/60 258/36/60
f 259/36/62 260/37/62 261/61/62
f 262/61/62 263/37/62 264/36/62
