mtllib sign_0.mtl

o main
v -0.123333 0.381991 -0.026667
v -0.123333 0.055741 -0.026667
v -0.145833 0.381991 -0.004167
v -0.145833 0.055741 -0.004167
v -0.123333 0.381991 0.018333
v -0.123333 0.055741 0.018333
v 0.124167 0.055741 0.018333
v 0.146667 0.055741 -0.004167
v 0.146667 0.381991 -0.004167
v 0.124167 0.381991 0.018333
v 0.124167 0.055741 -0.026667
v 0.124167 0.055741 0.018333
v 0.124167 0.381991 0.018333
v 0.124167 0.381991 -0.026667
v 0.146667 0.055741 -0.004167
v 0.124167 0.055741 -0.026667
v 0.124167 0.381991 -0.026667
v 0.146667 0.381991 -0.004167
v -0.123333 0.055741 0.018333
v -0.123333 0.055741 -0.026667
v -0.123333 0.381991 -0.026667
v -0.123333 0.381991 0.018333
v -0.123333 0.359491 -0.015417
v 0.124167 0.359491 -0.015417
v 0.124167 0.179491 -0.015417
v -0.123333 0.179491 -0.015417
v -0.123333 0.359491 0.007083
v 0.124167 0.359491 0.007083
v 0.124167 0.359491 -0.015417
v -0.123333 0.359491 -0.015417
v -0.123333 0.179491 0.007083
v 0.124167 0.179491 0.007083
v 0.124167 0.359491 0.007083
v -0.123333 0.359491 0.007083
v 0.146667 0.381991 -0.004167
v 0.124167 0.381991 -0.026667
v 0.124167 0.381991 0.018333
v -0.145833 0.381991 -0.004167
v -0.123333 0.381991 0.018333
v -0.123333 0.381991 -0.026667
vn 0.3243 0.7266 -0.6056
vn 0.4727 0.0000 -0.8812
vn -0.7423 0.6701 0.0000
vn -1.0000 0.0000 0.0000
vn 0.3243 0.7267 0.6056
vn 0.4727 0.0000 0.8812
vn -0.4727 0.0000 0.8812
vn 1.0000 0.0000 0.0000
vn 0.7422 0.6701 0.0001
vn -0.3243 0.7266 0.6056
vn -0.4728 0.0000 -0.8811
vn -0.4728 0.0000 0.8811
vn -0.3243 0.7267 0.6056
vn -0.3243 0.7267 -0.6056
vn -0.4727 0.0000 -0.8812
vn 0.7423 0.6701 0.0000
vn 0.4728 0.0000 0.8811
vn 0.4728 0.0000 -0.8811
vn 0.3243 0.7267 -0.6056
vn 0.0000 0.0000 -1.0000
vn 0.0000 1.0000 0.0000
vn 0.0000 0.0000 1.0000
vn 0.7424 0.6699 -0.0002
vn -0.3244 0.7266 0.6056
vn -0.7424 0.6699 0.0002
vn 0.3244 0.7266 -0.6056
vt 0.025000 0.225000
vt 0.775000 0.225000
vt 0.025000 0.342187
vt 0.775000 0.342187
vt 0.775000 0.389062
vt 0.025000 0.389062
vt 0.376563 0.389062
vt 0.025000 0.928125
vt 0.775000 0.928125
vt 0.775000 0.975000
vt 0.025000 0.975000
vt 0.025000 0.435937
vt 0.775000 0.435937
vt 0.212500 0.951563
s 1
usemtl sign_0
f 1/1/1 2/2/2 3/3/3
f 2/2/2 4/4/4 3/3/3
f 3/3/3 4/4/4 5/1/5
f 4/4/4 6/2/6 5/1/5
f 7/4/7 8/2/8 9/1/9
f 9/1/9 10/3/10 7/4/7
f 11/5/11 12/5/12 13/6/13
f 13/6/13 14/6/14 11/5/11
f 15/4/8 16/2/15 17/1/14
f 17/1/14 18/3/16 15/4/8
f 19/5/17 20/5/18 21/6/19
f 21/6/19 22/6/5 19/5/17
f 23/7/20 24/7/20 25/7/20
f 25/7/20 26/7/20 23/7/20
f 27/8/21 28/9/21 29/10/21
f 29/10/21 30/11/21 27/8/21
f 31/12/22 32/13/22 33/9/22
f 33/9/22 34/8/22 31/12/22
f 35/14/23 36/14/14 37/14/24
f 38/14/25 39/14/5 40/14/26

o path
v 0.101667 0.045000 -0.049167
v -0.190833 0.045000 -0.049167
v 0.101667 0.045000 0.018333
v -0.145833 0.045000 0.018333
v 0.146667 0.045000 0.063333
v -0.145833 0.045000 0.063333
v 0.101667 0.045000 -0.049167
v 0.101667 0.045000 0.018333
v 0.146667 0.045000 0.018333
v 0.146667 0.045000 0.063333
v -0.190833 0.045000 -0.049167
v -0.190833 0.045000 0.018333
v -0.145833 0.045000 0.018333
v -0.145833 0.045000 0.063333
vn 0.0000 1.0000 0.0000
vt 0.900000 0.956250
vt 0.900000 0.843750
s 1
usemtl sign_0
f 41/15/27 42/15/27 43/16/27
f 42/15/27 44/16/27 43/16/27
f 43/16/27 44/16/27 45/15/27
f 44/16/27 46/15/27 45/15/27
f 47/15/27 48/16/27 49/15/27
f 48/16/27 50/15/27 49/15/27
f 51/15/27 52/15/27 53/16/27
f 52/15/27 54/15/27 53/16/27
